HIERARCHY
ROOT Hips
{
	OFFSET 0.000000 0.000000 0.000000 
	CHANNELS 6 Xposition Yposition Zposition Yrotation Xrotation Zrotation
	JOINT Spine
	{
		OFFSET 0.000000 0.072080 0.012321 
		CHANNELS 3 Xrotation Yrotation Zrotation
		JOINT Spine1
		{
			OFFSET 0.000000 0.126984 -0.001294 
			CHANNELS 3 Xrotation Yrotation Zrotation
			JOINT Spine2
			{
				OFFSET 0.000000 0.106559 -0.010096 
				CHANNELS 3 Xrotation Yrotation Zrotation
				JOINT Neck
				{
					OFFSET 0.000000 0.108417 -0.034017 
					CHANNELS 3 Xrotation Yrotation Zrotation
					JOINT Neck1
					{
						OFFSET 0.000000 0.033906 0.007241 
						CHANNELS 3 Xrotation Yrotation Zrotation
						JOINT Head
						{
							OFFSET 0.000000 0.031458 0.006707 
							CHANNELS 3 Xrotation Yrotation Zrotation
							End Site
							{
								OFFSET 0.000000 0.179920 0.000962 
							}
						}
					}
				}
				JOINT LeftShoulder
				{
					OFFSET 0.048002 0.079586 -0.029634 
					CHANNELS 3 Zrotation Xrotation Yrotation
					JOINT LeftArm
					{
						OFFSET 0.096243 -0.008695 -0.014012 
						CHANNELS 3 Zrotation Xrotation Yrotation
						JOINT LeftForeArm
						{
							OFFSET 0.216305 0.000000 0.000000 
							CHANNELS 3 Xrotation Zrotation Yrotation
							JOINT LeftHand
							{
								OFFSET 0.217764 0.000000 0.000000 
								CHANNELS 3 Zrotation Yrotation Xrotation
								JOINT LeftHandThumb1
								{
									OFFSET 0.018582 -0.007835 0.020476 
									CHANNELS 3 Zrotation Xrotation Yrotation
									JOINT LeftHandThumb2
									{
										OFFSET 0.026269 -0.007835 0.022186 
										CHANNELS 3 Zrotation Xrotation Yrotation
										JOINT LeftHandThumb3
										{
											OFFSET 0.035170 -0.010504 0.017018 
											CHANNELS 3 Zrotation Xrotation Yrotation
											End Site
											{
												OFFSET 0.020312 -0.007813 0.007813 
											}
										}
									}
								}
								JOINT LeftHandMiddle1
								{
									OFFSET 0.081749 0.004803 0.003358 
									CHANNELS 3 Zrotation Xrotation Yrotation
									JOINT LeftHandMiddle2
									{
										OFFSET 0.045251 0.000000 0.000000 
										CHANNELS 3 Zrotation Xrotation Yrotation
										JOINT LeftHandMiddle3
										{
											OFFSET 0.029009 0.000000 0.000000 
											CHANNELS 3 Zrotation Xrotation Yrotation
											End Site
											{
												OFFSET 0.017969 0.000000 0.000000 
											}
										}
									}
								}
								JOINT LeftHandIndex1
								{
									OFFSET 0.081207 0.004803 0.021137 
									CHANNELS 3 Zrotation Xrotation Yrotation
									JOINT LeftHandIndex2
									{
										OFFSET 0.043354 0.000000 0.000000 
										CHANNELS 3 Zrotation Xrotation Yrotation
										JOINT LeftHandIndex3
										{
											OFFSET 0.026493 0.000000 0.000000 
											CHANNELS 3 Zrotation Xrotation Yrotation
											End Site
											{
												OFFSET 0.019531 0.000000 0.000000 
											}
										}
									}
								}
								JOINT LeftHandRing1
								{
									OFFSET 0.080666 0.002509 -0.014652 
									CHANNELS 3 Zrotation Xrotation Yrotation
									JOINT LeftHandRing2
									{
										OFFSET 0.042541 0.000000 0.000000 
										CHANNELS 3 Zrotation Xrotation Yrotation
										JOINT LeftHandRing3
										{
											OFFSET 0.029009 0.000000 0.000000 
											CHANNELS 3 Zrotation Xrotation Yrotation
											End Site
											{
												OFFSET 0.015625 0.000000 0.000000 
											}
										}
									}
								}
								JOINT LeftHandPinky1
								{
									OFFSET 0.078227 -0.000612 -0.030993 
									CHANNELS 3 Zrotation Xrotation Yrotation
									JOINT LeftHandPinky2
									{
										OFFSET 0.028721 0.000000 0.000000 
										CHANNELS 3 Zrotation Xrotation Yrotation
										JOINT LeftHandPinky3
										{
											OFFSET 0.021963 0.000000 0.000000 
											CHANNELS 3 Zrotation Xrotation Yrotation
											End Site
											{
												OFFSET 0.022656 0.000000 0.000000 
											}
										}
									}
								}
							}
						}
					}
				}
				JOINT RightShoulder
				{
					OFFSET -0.047970 0.079586 -0.029634 
					CHANNELS 3 Zrotation Xrotation Yrotation
					JOINT RightArm
					{
						OFFSET -0.096274 -0.008695 -0.014012 
						CHANNELS 3 Zrotation Xrotation Yrotation
						JOINT RightForeArm
						{
							OFFSET -0.216305 0.000000 0.000000 
							CHANNELS 3 Xrotation Zrotation Yrotation
							JOINT RightHand
							{
								OFFSET -0.217764 0.000000 0.000000 
								CHANNELS 3 Zrotation Yrotation Xrotation
								JOINT RightHandThumb1
								{
									OFFSET -0.019670 -0.007318 0.019638 
									CHANNELS 3 Zrotation Xrotation Yrotation
									JOINT RightHandThumb2
									{
										OFFSET -0.025498 -0.008492 0.023179 
										CHANNELS 3 Zrotation Xrotation Yrotation
										JOINT RightHandThumb3
										{
											OFFSET -0.034504 -0.010705 0.016680 
											CHANNELS 3 Zrotation Xrotation Yrotation
											End Site
											{
												OFFSET -0.020312 -0.007813 0.007813 
											}
										}
									}
								}
								JOINT RightHandIndex1
								{
									OFFSET -0.081770 0.003825 0.021187 
									CHANNELS 3 Zrotation Xrotation Yrotation
									JOINT RightHandIndex2
									{
										OFFSET -0.042006 0.000000 0.000000 
										CHANNELS 3 Zrotation Xrotation Yrotation
										JOINT RightHandIndex3
										{
											OFFSET -0.026449 0.000000 0.000000 
											CHANNELS 3 Zrotation Xrotation Yrotation
											End Site
											{
												OFFSET -0.020312 0.000000 0.000000 
											}
										}
									}
								}
								JOINT RightHandMiddle1
								{
									OFFSET -0.084059 0.003825 0.003342 
									CHANNELS 3 Zrotation Xrotation Yrotation
									JOINT RightHandMiddle2
									{
										OFFSET -0.043881 0.000000 0.000000 
										CHANNELS 3 Zrotation Xrotation Yrotation
										JOINT RightHandMiddle3
										{
											OFFSET -0.029191 0.000000 0.000000 
											CHANNELS 3 Zrotation Xrotation Yrotation
											End Site
											{
												OFFSET -0.017969 0.000000 0.000000 
											}
										}
									}
								}
								JOINT RightHandRing1
								{
									OFFSET -0.081798 0.003030 -0.015127 
									CHANNELS 3 Zrotation Xrotation Yrotation
									JOINT RightHandRing2
									{
										OFFSET -0.042198 0.000000 0.000000 
										CHANNELS 3 Zrotation Xrotation Yrotation
										JOINT RightHandRing3
										{
											OFFSET -0.026497 0.000000 0.000000 
											CHANNELS 3 Zrotation Xrotation Yrotation
											End Site
											{
												OFFSET -0.017188 0.000000 0.000000 
											}
										}
									}
								}
								JOINT RightHandPinky1
								{
									OFFSET -0.077902 -0.000930 -0.030891 
									CHANNELS 3 Zrotation Xrotation Yrotation
									JOINT RightHandPinky2
									{
										OFFSET -0.028538 0.000000 0.000000 
										CHANNELS 3 Zrotation Xrotation Yrotation
										JOINT RightHandPinky3
										{
											OFFSET -0.021734 0.000000 0.000000 
											CHANNELS 3 Zrotation Xrotation Yrotation
											End Site
											{
												OFFSET -0.022656 0.000000 0.000000 
											}
										}
									}
								}
							}
						}
					}
				}
			}
		}
	}
	JOINT LeftUpLeg
	{
		OFFSET 0.075264 -0.025573 0.000000 
		CHANNELS 3 Xrotation Yrotation Zrotation
		JOINT LeftLeg
		{
			OFFSET 0.000000 -0.326016 -0.013516 
			CHANNELS 3 Xrotation Yrotation Zrotation
			JOINT LeftFoot
			{
				OFFSET 0.000098 -0.306172 -0.006623 
				CHANNELS 3 Xrotation Yrotation Zrotation
				JOINT LeftToeBase
				{
					OFFSET -0.001432 -0.095259 0.064705 
					CHANNELS 3 Xrotation Yrotation Zrotation
					End Site
					{
						OFFSET 0.000000 0.000000 0.079438 
					}
				}
			}
		}
	}
	JOINT RightUpLeg
	{
		OFFSET -0.075264 -0.025573 0.000000 
		CHANNELS 3 Xrotation Yrotation Zrotation
		JOINT RightLeg
		{
			OFFSET 0.000000 -0.326016 -0.013516 
			CHANNELS 3 Xrotation Yrotation Zrotation
			JOINT RightFoot
			{
				OFFSET 0.000098 -0.306172 -0.006623 
				CHANNELS 3 Xrotation Yrotation Zrotation
				JOINT RightToeBase
				{
					OFFSET -0.001432 -0.095259 0.064705 
					CHANNELS 3 Xrotation Yrotation Zrotation
					End Site
					{
						OFFSET 0.000025 0.000000 0.079438 
					}
				}
			}
		}
	}
}
MOTION
Frames: 4
Frame Time: 0.033333
0.004455 0.674748 -0.002288 -11.452700 7.105100 10.466300 10.942500 1.166900 -0.551200 0.873900 0.398900 -0.529200 0.871100 0.414200 -0.535500 -6.877200 -0.819300 -2.459200 -0.000000 0.000000 -0.000000 -18.890100 -6.397500 -2.378100 -18.402901 2.507300 2.971000 -49.308399 13.932700 20.758101 -0.000000 0.000000 -64.556198 14.217300 0.276000 5.227700 16.553101 -0.033800 5.332700 -14.298300 10.001400 3.555300 22.628700 -22.727600 -12.551600 -55.840401 0.007300 -0.480600 -69.358200 0.009700 -0.014100 -64.689301 0.008600 -0.013600 -54.390800 4.382000 -5.437100 -71.447800 0.010300 -0.014200 -58.257801 0.007100 -0.012800 -63.800800 0.009200 2.105200 -73.172997 0.010700 -0.014400 -74.740303 0.011100 -0.014500 -65.808701 -6.870600 -4.995700 -71.854103 0.010400 -0.014300 -66.114799 0.008900 -0.013700 14.382000 2.914800 8.494900 50.288700 27.899000 12.634600 -0.000000 -0.000000 51.066502 -6.984500 23.283100 -0.770500 -8.953400 2.331600 -6.719100 5.930600 10.000800 -2.147000 -16.686300 -22.488501 16.548000 47.568901 5.518000 6.857900 78.530800 0.006300 0.007800 66.547401 0.004800 0.007300 60.622101 0.004300 4.130700 74.135399 0.005800 0.007600 66.980202 0.004800 0.007300 68.138802 0.005300 0.439800 75.261703 0.005900 0.007700 62.835098 0.004300 0.007000 67.610100 -14.916300 5.545500 68.695000 0.005000 0.007400 62.964600 0.004300 0.007100 -50.620899 -3.637300 16.650900 125.772202 -9.806400 -0.988900 -11.850900 -12.805000 -7.062800 -4.301600 -0.000000 -0.000000 -3.537800 -7.650200 7.013400 36.459099 9.028100 1.755600 -14.057100 6.041200 -30.291599 -18.577299 -0.001700 0.506800 
0.006894 0.699094 0.087444 -16.018200 10.077400 12.619500 9.188700 7.449500 -3.977900 0.325200 2.240600 -1.179400 0.306800 2.254000 -1.200200 -7.233600 -1.435400 -2.758000 -0.000000 0.000000 -0.000000 -18.077801 -9.209900 -3.224900 -16.681999 2.377900 4.008300 -50.257099 17.788401 27.509001 0.000000 -0.000000 -68.061401 8.176300 -1.690000 10.060000 16.553101 -0.033800 5.332700 -13.913400 9.977200 2.771900 23.211901 -22.747200 -12.978400 -57.776699 0.007800 -0.206100 -70.146301 0.009900 -0.014100 -64.505203 0.008600 -0.013600 -58.125198 4.233800 -4.742000 -71.952202 0.010400 -0.014300 -58.164799 0.007100 -0.012800 -64.951103 0.009500 1.983600 -73.670502 0.010800 -0.014400 -74.700401 0.011100 -0.014500 -66.495201 -6.842600 -5.052600 -72.568199 0.010500 -0.014300 -65.554199 0.008800 -0.013700 12.080900 2.362600 6.486500 44.364601 32.129501 16.100100 -0.000000 0.000000 68.597702 -11.022200 19.249800 1.388600 -8.953400 2.331600 -6.719200 6.169200 9.969700 -2.646500 -16.397301 -22.179800 15.601900 46.924301 5.661500 6.963400 78.661903 0.006400 0.007800 67.041298 0.004800 0.007300 60.299599 0.004300 4.203300 74.539398 0.005800 0.007600 66.696098 0.004800 0.007300 66.161903 0.005000 1.002500 76.670601 0.006100 0.007700 62.621799 0.004300 0.007000 60.339600 -14.587700 6.624000 68.244797 0.005000 0.007400 63.719398 0.004400 0.007100 -56.173401 0.508500 13.835200 111.897102 -0.298300 -1.058600 -16.056900 -12.337500 -2.878900 0.214200 0.000000 0.000000 5.573900 -11.907000 -1.071400 20.857800 9.573700 2.253800 -1.601200 9.403700 -25.135599 -27.799700 0.000000 -0.000000 
0.006526 0.720071 0.174965 -17.746000 12.663800 14.362000 8.206400 11.060400 -6.421400 -0.230300 3.290200 -1.728200 -0.259700 3.288800 -1.776400 -7.845100 -1.848000 -3.144700 -0.000000 0.000000 -0.000000 -18.041100 -11.397700 -3.999300 -15.517900 2.403200 3.765400 -50.687801 19.869499 32.525700 0.000000 0.000000 -70.919197 5.054100 -2.887500 9.176300 16.553101 -0.033800 5.332600 -13.425900 9.941800 1.778100 23.855600 -22.784901 -13.384600 -58.488201 0.008000 -0.054100 -70.173103 0.009900 -0.014100 -64.440201 0.008600 -0.013600 -60.148102 4.151900 -4.366100 -71.545799 0.010300 -0.014300 -58.003101 0.007100 -0.012700 -64.953903 0.009500 2.049700 -73.412498 0.010700 -0.014400 -74.353996 0.011000 -0.014500 -66.567596 -6.902600 -4.937500 -72.555099 0.010500 -0.014300 -64.769096 0.008600 -0.013600 11.021000 1.792300 3.416500 37.227100 31.591400 20.015800 0.000000 -0.000100 84.043800 -11.435800 16.912701 4.390000 -8.953400 2.331600 -6.719200 6.900300 9.998200 -4.165300 -16.160299 -21.931999 14.403000 44.096001 5.931800 7.170700 79.649399 0.006500 0.007800 66.888397 0.004800 0.007300 59.610100 0.004200 4.160400 75.435501 0.005900 0.007600 66.775803 0.004800 0.007300 65.002998 0.004900 1.052700 77.736504 0.006200 0.007700 63.109501 0.004300 0.007100 59.153301 -14.461700 7.036700 67.571701 0.004900 0.007300 63.913898 0.004400 0.007100 -58.899799 1.392000 10.399900 96.235603 3.799400 -1.568300 -19.249399 -11.911600 2.395200 3.518000 -0.000000 0.000000 10.537500 -15.838000 -6.330800 10.087400 9.836800 2.515000 13.483700 7.347700 -19.979401 -22.627600 0.000000 -0.000000 
0.001927 0.738404 0.261755 -17.456200 13.939500 15.363100 7.369100 11.985500 -7.473300 -0.400100 3.543700 -1.913900 -0.431500 3.528900 -1.978800 -8.403000 -2.019800 -3.567800 -0.000000 0.000000 -0.000000 -18.435600 -12.703500 -4.583600 -14.817400 2.500100 2.898000 -50.851898 20.888500 35.858601 0.000000 0.000000 -73.177101 4.944400 -3.086100 7.810100 16.553101 -0.033800 5.332600 -12.928100 9.896600 0.757100 23.944099 -22.753500 -13.262200 -58.553398 0.007900 0.074700 -69.534302 0.009800 -0.014100 -64.439201 0.008600 -0.013600 -61.136101 4.105800 -4.157300 -70.799599 0.010100 -0.014200 -57.919498 0.007000 -0.012700 -64.375603 0.009300 2.203400 -72.643799 0.010600 -0.014300 -73.890297 0.010900 -0.014400 -66.314796 -6.974000 -4.803500 -72.270599 0.010500 -0.014300 -63.947498 0.008400 -0.013500 10.812100 1.358400 0.617000 32.242699 26.254499 23.066200 0.000000 0.000000 95.503799 -10.292200 15.874400 5.704200 -8.953400 2.331600 -6.719200 7.242700 10.000900 -4.872400 -16.152901 -21.870800 14.088100 41.034100 5.899100 7.146200 79.249397 0.006400 0.007800 66.695396 0.004800 0.007300 58.462299 0.004100 4.014000 75.967400 0.006000 0.007700 66.530098 0.004800 0.007300 63.858101 0.004800 0.708300 77.540398 0.006200 0.007700 63.147999 0.004300 0.007000 58.839699 -14.589800 6.632000 67.547600 0.004900 0.007300 63.214100 0.004400 0.007100 -57.992802 -0.209400 6.630300 77.375801 3.661200 -1.137700 -19.098301 -10.689400 2.841700 4.234000 -0.000000 -0.000000 13.110000 -17.049700 -8.728800 8.829200 9.245100 0.486200 25.238501 2.032500 -13.207800 -10.095300 0.000000 -0.000000 
